<svg width="508" height="150" viewBox="0 0 508 150" fill="none" xmlns="http://www.w3.org/2000/svg">
<g filter="url(#filter0_d_1840_550)">
<path d="M233.995 118.052C225.36 118.052 218.531 114.929 213.508 108.682C208.486 102.496 205.975 94.1052 205.975 83.5095C205.975 72.7914 208.486 64.4007 213.508 58.3373C218.531 52.2739 225.36 49.2422 233.995 49.2422C241.1 49.2422 247.225 51.294 252.369 55.3975V28.1122L261.372 23.6106V116.491H252.369V110.795C247.592 115.633 241.467 118.052 233.995 118.052ZM235.006 109.876C242.845 109.876 248.633 106.446 252.369 99.5867V66.7893C248.449 60.4809 242.662 57.3267 235.006 57.3267C228.697 57.3267 223.859 59.5928 220.49 64.1251C217.061 68.6573 215.346 75.1188 215.346 83.5095C215.346 91.1041 217.153 97.4125 220.766 102.435C224.38 107.396 229.126 109.876 235.006 109.876ZM337.257 108.866C331.683 114.99 324.334 118.052 315.208 118.052C306.021 118.052 298.671 115.021 293.159 108.957C287.586 102.894 284.799 94.4726 284.799 83.6933C284.799 72.9752 287.586 64.5538 293.159 58.4292C298.671 52.3045 306.021 49.2422 315.208 49.2422C324.334 49.2422 331.683 52.2433 337.257 58.2454C342.769 64.3088 345.525 72.7302 345.525 83.5095C345.525 94.2276 342.769 102.68 337.257 108.866ZM315.208 109.876C321.761 109.876 326.906 107.549 330.642 102.894C334.317 98.2393 336.154 91.7778 336.154 83.5095C336.154 75.2413 334.347 68.8104 330.734 64.2169C327.12 59.6235 321.945 57.3267 315.208 57.3267C308.348 57.3267 303.142 59.5622 299.59 64.0332C295.977 68.5654 294.17 75.1188 294.17 83.6933C294.17 92.0228 295.977 98.4843 299.59 103.078C303.204 107.61 308.41 109.876 315.208 109.876ZM421.685 116.491H411.763L390.541 74.5063L377.955 87.9193V116.491H368.952V28.0203L377.955 23.6106V77.2624L402.484 50.7121H412.957L396.88 67.8917L421.685 116.491ZM495.732 108.866C490.158 114.99 482.778 118.052 473.591 118.052C464.465 118.052 457.116 115.021 451.542 108.957C446.03 102.894 443.274 94.4726 443.274 83.6933C443.274 72.9752 446.03 64.5538 451.542 58.4292C457.116 52.3045 464.465 49.2422 473.591 49.2422C482.778 49.2422 490.158 52.2433 495.732 58.2454C501.244 64.3088 504 72.7302 504 83.5095C504 94.2276 501.244 102.68 495.732 108.866ZM473.591 109.876C480.206 109.876 485.35 107.549 489.025 102.894C492.761 98.2393 494.629 91.7778 494.629 83.5095C494.629 75.2413 492.822 68.8104 489.209 64.2169C485.595 59.6235 480.389 57.3267 473.591 57.3267C466.731 57.3267 461.526 59.5622 457.973 64.0332C454.421 68.5654 452.645 75.1188 452.645 83.6933C452.645 92.0228 454.452 98.4843 458.065 103.078C461.679 107.61 466.854 109.876 473.591 109.876Z" fill="black"/>
<path d="M171.64 104.932H144.503C143.874 104.932 143.252 105.055 142.671 105.296C142.09 105.536 141.562 105.888 141.118 106.333C140.673 106.777 140.321 107.305 140.08 107.886C139.84 108.467 139.716 109.09 139.717 109.718C139.717 109.849 139.604 121.997 130.938 128.272C122.362 122.033 122.156 109.833 122.156 109.718C122.156 109.148 121.361 54.5397 68.4044 51.0004C71.0652 33.9719 88.121 33.0988 90.2337 33.0789C91.5013 33.0693 92.7135 32.5584 93.6056 31.6578C94.4976 30.7573 94.997 29.5403 94.9945 28.2727C94.9917 27.0071 94.4869 25.7943 93.591 24.9005C92.6951 24.0066 91.4812 23.5046 90.2156 23.5046C84.0354 23.5046 74.8242 25.6645 67.8672 31.9263V4.78804C67.8672 2.14173 65.7254 0 63.0791 0C60.4328 0 58.2911 2.14173 58.2911 4.78804V31.8102C53.3633 26.9713 46.1957 23.5064 35.9245 23.5064C35.2957 23.5062 34.6729 23.6299 34.0919 23.8704C33.5109 24.1109 32.983 24.4636 32.5383 24.9083C32.0937 25.3529 31.741 25.8808 31.5004 26.4619C31.2599 27.0429 31.1362 27.6656 31.1365 28.2944C31.1362 28.9233 31.2599 29.546 31.5004 30.127C31.741 30.7081 32.0937 31.236 32.5383 31.6806C32.983 32.1253 33.5109 32.478 34.0919 32.7185C34.6729 32.959 35.2957 33.0827 35.9245 33.0825C52.1109 33.0825 56.5904 44.3883 57.8228 50.9986C4.79498 54.4944 4 109.148 4 109.72C4 120.774 10.6757 141.663 35.9427 141.663H117.368C122.391 141.663 126.935 140.821 130.938 139.167C134.94 140.821 139.484 141.663 144.505 141.663C169.752 141.663 176.429 120.774 176.429 109.72C176.429 109.091 176.305 108.468 176.065 107.887C175.824 107.306 175.471 106.779 175.026 106.334C174.582 105.889 174.053 105.537 173.472 105.296C172.891 105.056 172.268 104.932 171.64 104.932V104.932ZM117.368 132.087H35.9427C14.3711 132.087 13.5942 111.993 13.5761 109.72C13.5761 107.702 14.1369 60.2371 63.0791 60.2371C111.834 60.2371 112.573 107.711 112.582 109.72C112.582 110.374 112.695 122.709 120.784 131.911C119.686 132.032 118.546 132.087 117.368 132.087V132.087ZM144.503 132.087C143.327 132.087 142.185 132.032 141.091 131.909C146.178 126.121 148.113 119.089 148.843 114.506H166.32C164.991 121.164 160.392 132.087 144.503 132.087V132.087Z" fill="url(#paint0_linear_1840_550)"/>
<path d="M171.64 104.932H144.503C143.874 104.932 143.252 105.055 142.671 105.296C142.09 105.536 141.562 105.888 141.118 106.333C140.673 106.777 140.321 107.305 140.08 107.886C139.84 108.467 139.716 109.09 139.717 109.718C139.717 109.849 139.604 121.997 130.938 128.272C122.362 122.033 122.156 109.833 122.156 109.718C122.156 109.148 121.361 54.5397 68.4044 51.0004C71.0652 33.9719 88.121 33.0988 90.2337 33.0789C91.5013 33.0693 92.7135 32.5584 93.6056 31.6578C94.4976 30.7573 94.997 29.5403 94.9945 28.2727C94.9917 27.0071 94.4869 25.7943 93.591 24.9005C92.6951 24.0066 91.4812 23.5046 90.2156 23.5046C84.0354 23.5046 74.8242 25.6645 67.8672 31.9263V4.78804C67.8672 2.14173 65.7254 0 63.0791 0C60.4328 0 58.2911 2.14173 58.2911 4.78804V31.8102C53.3633 26.9713 46.1957 23.5064 35.9245 23.5064C35.2957 23.5062 34.6729 23.6299 34.0919 23.8704C33.5109 24.1109 32.983 24.4636 32.5383 24.9083C32.0937 25.3529 31.741 25.8808 31.5004 26.4619C31.2599 27.0429 31.1362 27.6656 31.1365 28.2944C31.1362 28.9233 31.2599 29.546 31.5004 30.127C31.741 30.7081 32.0937 31.236 32.5383 31.6806C32.983 32.1253 33.5109 32.478 34.0919 32.7185C34.6729 32.959 35.2957 33.0827 35.9245 33.0825C52.1109 33.0825 56.5904 44.3883 57.8228 50.9986C4.79498 54.4944 4 109.148 4 109.72C4 120.774 10.6757 141.663 35.9427 141.663H117.368C122.391 141.663 126.935 140.821 130.938 139.167C134.94 140.821 139.484 141.663 144.505 141.663C169.752 141.663 176.429 120.774 176.429 109.72C176.429 109.091 176.305 108.468 176.065 107.887C175.824 107.306 175.471 106.779 175.026 106.334C174.582 105.889 174.053 105.537 173.472 105.296C172.891 105.056 172.268 104.932 171.64 104.932V104.932ZM117.368 132.087H35.9427C14.3711 132.087 13.5942 111.993 13.5761 109.72C13.5761 107.702 14.1369 60.2371 63.0791 60.2371C111.834 60.2371 112.573 107.711 112.582 109.72C112.582 110.374 112.695 122.709 120.784 131.911C119.686 132.032 118.546 132.087 117.368 132.087V132.087ZM144.503 132.087C143.327 132.087 142.185 132.032 141.091 131.909C146.178 126.121 148.113 119.089 148.843 114.506H166.32C164.991 121.164 160.392 132.087 144.503 132.087V132.087Z" fill="url(#paint1_linear_1840_550)"/>
<path d="M32.5105 111.845C31.6502 112.707 31.1729 113.856 31.1729 115.194C31.1729 116.446 31.6502 117.588 32.5105 118.552C33.4263 119.466 34.6669 119.98 35.9609 119.982C37.2214 119.963 38.424 119.449 39.3096 118.552C40.179 117.59 40.7489 116.345 40.7489 115.194C40.7489 113.949 40.2716 112.707 39.2152 111.753C38.3063 110.891 37.0966 110.418 35.8441 110.435C34.5915 110.452 33.3953 110.958 32.5105 111.845Z" fill="url(#paint2_linear_1840_550)"/>
</g>
<defs>
<filter id="filter0_d_1840_550" x="0" y="0" width="508" height="149.663" filterUnits="userSpaceOnUse" color-interpolation-filters="sRGB">
<feFlood flood-opacity="0" result="BackgroundImageFix"/>
<feColorMatrix in="SourceAlpha" type="matrix" values="0 0 0 0 0 0 0 0 0 0 0 0 0 0 0 0 0 0 127 0" result="hardAlpha"/>
<feOffset dy="4"/>
<feGaussianBlur stdDeviation="2"/>
<feComposite in2="hardAlpha" operator="out"/>
<feColorMatrix type="matrix" values="0 0 0 0 0 0 0 0 0 0 0 0 0 0 0 0 0 0 0.25 0"/>
<feBlend mode="normal" in2="BackgroundImageFix" result="effect1_dropShadow_1840_550"/>
<feBlend mode="normal" in="SourceGraphic" in2="effect1_dropShadow_1840_550" result="shape"/>
</filter>
<linearGradient id="paint0_linear_1840_550" x1="-5.61072" y1="-0.118736" x2="150.663" y2="72.7531" gradientUnits="userSpaceOnUse">
<stop stop-color="#395ECA"/>
<stop offset="1" stop-color="#848BD8"/>
</linearGradient>
<linearGradient id="paint1_linear_1840_550" x1="-5.61072" y1="-0.118736" x2="150.663" y2="72.7531" gradientUnits="userSpaceOnUse">
<stop stop-color="#395ECA"/>
<stop offset="1" stop-color="#848BD8"/>
</linearGradient>
<linearGradient id="paint2_linear_1840_550" x1="-27.6556" y1="111.453" x2="-18.9767" y2="115.5" gradientUnits="userSpaceOnUse">
<stop stop-color="#395ECA"/>
<stop offset="1" stop-color="#848BD8"/>
</linearGradient>
</defs>
</svg>
